<?xml version="1.0" encoding="UTF-8" standalone="no"?>
<!-- Created with Inkscape (http://www.inkscape.org/) -->

<svg
   width="320"
   height="320"
   viewBox="0 0 320 320.00001"
   version="1.1"
   id="svg5"
   inkscape:version="1.1.2 (b8e25be833, 2022-02-05)"
   sodipodi:docname="logo_DanceAcademy.svg"
   inkscape:export-filename="C:\Users\hrist\OneDrive - MG Geo Milev - Pleven\Документи\Uni Thingies\Курс 2\Графичен дизайн - S4\logo_DanceAcademy.png"
   inkscape:export-xdpi="96"
   inkscape:export-ydpi="96"
   xmlns:inkscape="http://www.inkscape.org/namespaces/inkscape"
   xmlns:sodipodi="http://sodipodi.sourceforge.net/DTD/sodipodi-0.dtd"
   xmlns="http://www.w3.org/2000/svg"
   xmlns:svg="http://www.w3.org/2000/svg">
  <sodipodi:namedview
     id="namedview7"
     pagecolor="#ffffff"
     bordercolor="#666666"
     borderopacity="1.0"
     inkscape:pageshadow="2"
     inkscape:pageopacity="0"
     inkscape:pagecheckerboard="false"
     inkscape:document-units="px"
     showgrid="false"
     inkscape:snap-bbox="false"
     inkscape:snap-page="false"
     inkscape:lockguides="true"
     inkscape:snap-global="true"
     inkscape:zoom="0.9983453"
     inkscape:cx="53.087844"
     inkscape:cy="162.76933"
     inkscape:window-width="1920"
     inkscape:window-height="991"
     inkscape:window-x="-9"
     inkscape:window-y="-9"
     inkscape:window-maximized="1"
     inkscape:current-layer="layer1"
     units="px" />
  <defs
     id="defs2" />
  <g
     inkscape:label="Слой 1"
     inkscape:groupmode="layer"
     id="layer1"
     style="display:inline">
    <path
       style="opacity:1;fill:#000000;fill-opacity:1;stroke-width:0.00110485;stroke-miterlimit:4;stroke-dasharray:none;paint-order:fill markers stroke"
       d=""
       id="path114386" />
    <path
       style="opacity:1;fill:#000000;fill-opacity:1;stroke-width:3.90625e-05;stroke-miterlimit:4;stroke-dasharray:none;paint-order:fill markers stroke"
       d=""
       id="path117094" />
    <g
       id="g2601"
       transform="matrix(7.1690983,0,0,7.1690983,-12.058359,-12.058359)">
      <text
         xml:space="preserve"
         style="font-style:normal;font-variant:normal;font-weight:normal;font-stretch:normal;font-size:3.8004px;line-height:1.25;font-family:'Engravers MT';-inkscape-font-specification:'Engravers MT, Normal';font-variant-ligatures:normal;font-variant-caps:normal;font-variant-numeric:normal;font-variant-east-asian:normal;fill:#000000;fill-opacity:1;stroke:none;stroke-width:1.42515"
         x="4.0721664"
         y="40.313988"
         id="text134729"
         transform="scale(0.92381569,1.082467)"><tspan
           sodipodi:role="line"
           id="tspan144637"
           x="4.0721664"
           y="40.313988"
           style="stroke-width:1.42515">Lunar Academy</tspan></text>
      <g
         id="g2513"
         transform="translate(0.9560702,1.24e-4)">
        <g
           id="g4684"
           transform="matrix(3.1759617,0,0,3.196778,-21.146891,-25.792939)"
           style="fill:#aa0000">
          <path
             id="path4083"
             style="fill:#aa0000;fill-opacity:1;stroke-width:0.159318;stroke-miterlimit:4;stroke-dasharray:none;paint-order:fill markers stroke"
             d="M 23.375,4.3085938 A 16.773048,16.882984 0 0 0 7.1328125,19.421875 16.773048,16.882984 0 0 0 22.060547,37.976562 16.773048,16.882984 0 0 0 39.046875,28.166016 15.036193,15.134746 5.7840785e-5 0 1 30.158203,35.310547 c 0.03898,0.04752 0.06601,0.08515 0.109375,0.136719 0.341026,0.405525 0.44582,0.86914 0.197266,0.86914 -0.352745,0 -0.794293,-0.248596 -0.939453,-0.529297 -0.115962,-0.224212 -0.188341,-0.27455 -0.271485,-0.191406 -0.141655,0.141656 -0.365509,0.15087 -0.582031,0.07617 a 15.036193,15.134746 5.7840785e-5 0 1 -3.283203,0.25 c 0.01341,0.204366 0.0087,0.36827 -0.03906,0.416016 -0.170718,0.170717 -0.489953,-0.07567 -0.662109,-0.458985 a 15.036193,15.134746 5.7840785e-5 0 1 -0.335938,-0.01953 15.036193,15.134746 5.7840785e-5 0 1 -1.666015,-0.285156 c -0.01429,0.193763 -0.07779,0.272811 -0.273438,0.347656 -0.20018,0.07656 -0.331421,0.0749 -0.464843,-0.0078 -0.143747,-0.08917 -0.237657,-0.08245 -0.414063,0.0332 -0.314836,0.206282 -1.275391,0.272588 -1.275391,0.08789 0,-0.04375 0.129655,-0.155835 0.289063,-0.25 0.183043,-0.10813 0.290061,-0.262348 0.445313,-0.693359 a 15.036193,15.134746 5.7840785e-5 0 1 -2.009766,-0.871094 c -0.17939,0.62061 -0.209593,1.540258 -0.04687,1.736328 0.187718,0.226222 0.03494,0.361328 -0.408203,0.361328 -0.219823,0 -0.398438,0.04384 -0.398438,0.09961 0,0.05576 -0.04119,0.101562 -0.08984,0.101562 -0.0487,0 -0.113078,-0.238397 -0.142578,-0.53125 -0.04691,-0.465825 -0.02142,-0.566446 0.195313,-0.796875 0.207596,-0.220754 0.257071,-0.408257 0.330078,-1.277344 A 15.036193,15.134746 5.7840785e-5 0 1 10.96875,19.224609 15.036193,15.134746 5.7840785e-5 0 1 27.494141,5.7558594 15.036193,15.134746 5.7840785e-5 0 1 35.910156,9.4941406 16.773048,16.882984 0 0 0 25.566406,4.3964844 16.773048,16.882984 0 0 0 23.375,4.3085938 Z"
             transform="matrix(0.31486526,0,0,0.31281497,6.6584213,8.0684173)" />
        </g>
        <g
           id="g119002"
           transform="matrix(1.6179997,0,0,1.6179997,8.9322898,7.1726835)">
          <path
             style="fill:#000000;stroke:#000000;stroke-width:0.0108314;stroke-linecap:butt;stroke-linejoin:miter;stroke-miterlimit:4;stroke-dasharray:none;stroke-opacity:1"
             d="m 6.3686036,15.852755 -0.06472,0.495701 0.194147,-0.708144 -0.107859,1.085821 0.258863,-1.392683 -0.215719,1.498905 0.258862,-1.239253 -0.02157,1.298264 0.215718,-1.274658 v 0.932389 l 0.237292,-1.050413 0.06472,1.13303 0.194147,-1.310067 z"
             id="use116497" />
          <path
             style="fill:#000000;stroke:#000000;stroke-width:0.00730244;stroke-linecap:butt;stroke-linejoin:miter;stroke-miterlimit:4;stroke-dasharray:none;stroke-opacity:1"
             d="m 6.3637356,16.133213 -0.03099,0.470497 0.09297,-0.672139 -0.05165,1.030614 0.123965,-1.321873 -0.103303,1.422694 0.123965,-1.176244 -0.01033,1.232255 0.103304,-1.20985 v 0.884983 l 0.113634,-0.997006 0.03099,1.075422 0.09297,-1.243458 z"
             id="use116503" />
          <path
             style="fill:#000000;stroke-width:0.0626796"
             d="M 5.5407557,17.809101 C 5.5117625,17.521199 5.5267304,17.45967 5.6606832,17.317254 5.7941761,17.1753 5.8208471,17.067064 5.8692918,16.47108 c 0.054239,-0.667065 0.177546,-1.168475 0.3534183,-1.436877 0.09659,-0.147427 0.4633258,-1.918935 0.4636959,-2.239925 3.311e-4,-0.287102 0.1941465,-0.570201 0.5094759,-0.744141 0.1486908,-0.08204 0.3059715,-0.21953 0.3494981,-0.30556 C 7.7208108,11.397831 7.57143,10.527841 7.28305,10.216667 7.1577193,10.081426 7.08465,10.068298 6.2745852,10.035304 5.7942451,10.01576 5.2469057,9.957705 5.0582751,9.9063403 4.762657,9.8258445 4.6918846,9.8250627 4.5456125,9.9005923 4.452287,9.948853 4.3579039,10.045075 4.3359003,10.114397 c -0.022072,0.06932 -0.068172,0.126043 -0.1025913,0.126043 -0.1250548,0 -0.3050542,-0.132044 -0.3050542,-0.223783 0,-0.077346 -0.025016,-0.081071 -0.1410344,-0.020923 C 3.6619587,10.060572 3.6654536,10.048179 3.8185589,9.8848196 4.0204997,9.6693363 4.028639,9.6319348 3.8812357,9.596736 3.7350051,9.5618108 4.3136254,9.5472567 5.0878178,9.5663633 6.1191369,9.5918387 6.6946603,9.5773996 7.1240909,9.5156194 7.4564161,9.4677266 7.5348173,9.4341349 7.5532617,9.3316815 7.5714256,9.2302857 7.5603893,9.2212958 7.4945165,9.2846624 7.3380314,9.4354685 7.1251117,9.3777579 7.0321564,9.1593087 6.9575006,8.9838549 6.9582594,8.9358241 7.0376746,8.8129145 7.0981442,8.7193821 7.116331,8.5978451 7.0904877,8.4601216 7.0318115,8.1473973 7.1929871,7.8808805 7.4956087,7.7902152 7.7608517,7.710754 8.065039,7.7541863 8.065039,7.8715387 c 0,0.040213 0.061527,0.1386202 0.1367349,0.2186792 0.1152371,0.1226636 0.2978299,0.5192015 0.3010742,0.6538533 5.196e-4,0.021613 -0.083669,0.056101 -0.1870879,0.076794 -0.1662569,0.033247 -0.1880305,0.063206 -0.1880305,0.2585547 0,0.1215139 0.015175,0.2209324 0.033845,0.2209324 0.09751,0 0.5187095,-0.2596997 0.6508941,-0.4013157 0.083577,-0.089532 0.2137359,-0.1628081 0.2892746,-0.1628081 0.1692458,0 0.467623,-0.2260367 0.467623,-0.3542667 0,-0.071897 -0.043984,-0.084795 -0.1842828,-0.053986 C 9.2243905,8.3632691 9.1880857,8.3438407 9.1014165,8.1762503 9.0467639,8.0705549 8.9745683,7.9840581 8.9409996,7.9840581 c -0.033569,0 -0.056469,-0.09167 -0.050882,-0.2037112 C 8.8956376,7.6683057 8.8613086,7.4414827 8.8136916,7.276295 8.7037197,6.8948054 8.7598896,6.798576 9.1821813,6.6448384 9.5465048,6.5122192 9.8004173,6.5361311 10.124217,6.7336344 l 0.210126,0.1281588 -0.04479,0.5660252 c -0.04426,0.5592218 -0.04272,0.5681888 0.127745,0.746128 0.222887,0.2326493 0.413318,0.2700485 0.94414,0.1854094 0.442756,-0.070586 0.496096,-0.095786 1.131622,-0.534758 0.201826,-0.139402 0.529852,-0.3032516 0.728928,-0.3640982 0.333638,-0.1019706 0.377011,-0.1373097 0.554428,-0.4516733 0.105856,-0.1875707 0.229738,-0.3410462 0.275288,-0.3410462 0.04555,0 0.09712,-0.035247 0.114616,-0.078358 0.06606,-0.162785 0.172074,0.1103628 0.145817,0.3757093 -0.02046,0.207482 -0.07974,0.318277 -0.269105,0.5034817 -0.418625,0.4094343 -0.91918,0.8075978 -1.277003,1.015781 -0.189594,0.1103168 -0.410736,0.2832368 -0.4914,0.3842762 -0.08066,0.1010509 -0.239891,0.23244 -0.353841,0.2920037 -0.418151,0.2185642 -0.775574,0.6197512 -0.921055,1.033802 -0.300189,0.854365 -0.232104,1.793368 0.22376,3.085987 0.158049,0.448158 0.287721,0.875464 0.288157,0.949563 4.4e-4,0.0741 0.1025,0.285646 0.226796,0.470097 0.306822,0.455313 0.46889,0.787473 0.744702,1.526278 0.238763,0.639561 0.337545,0.815213 0.702528,1.249205 0.21077,0.250634 0.276121,0.537163 0.122503,0.537163 -0.218013,0 -0.49099,-0.15391 -0.580706,-0.327396 -0.07167,-0.138574 -0.11595,-0.169958 -0.167337,-0.118571 -0.19079,0.19079 -0.626081,0.0074 -0.719094,-0.303175 -0.143081,-0.477561 -0.657716,-1.662916 -0.921159,-2.12169 C 10.767491,14.876545 10.499072,14.335039 10.323407,13.93859 9.968018,13.136531 9.8156096,12.89998 9.6862254,12.949627 9.6382404,12.968017 9.533304,13.187022 9.4530381,13.436256 9.3727721,13.685489 9.2851947,13.865217 9.2584088,13.835649 9.2316228,13.806079 9.0467652,13.587478 8.8475927,13.349863 l -0.362137,-0.432029 0.076104,-0.413049 c 0.041869,-0.227186 0.1750399,-0.601327 0.2959676,-0.831443 0.225094,-0.428373 0.2610056,-0.738097 0.091992,-0.793676 -0.05279,-0.01747 -0.06985,-7.52e-4 -0.043317,0.04217 0.024073,0.03895 0.012646,0.07082 -0.02536,0.07082 -0.038029,0 -0.061964,0.03527 -0.053227,0.07836 0.00874,0.04309 -0.015865,0.135493 -0.05463,0.205343 -0.038788,0.06985 -0.1036031,0.309398 -0.1440234,0.532326 -0.04042,0.222932 -0.1133288,0.50064 -0.1620033,0.617137 -0.1437475,0.344042 -0.109719,0.476413 0.2144486,0.833919 0.1666247,0.183754 0.4593573,0.559764 0.6505056,0.835554 l 0.3475438,0.501438 0.029338,0.814833 c 0.024832,0.689634 0.054492,0.877435 0.1930654,1.222251 0.205873,0.512371 0.343015,1.292622 0.244493,1.391144 C 10.021367,18.149946 9.7664085,17.916023 9.6879222,17.604329 9.6142322,17.311709 9.5362884,17.245163 9.4872,17.432991 9.471335,17.493321 9.455264,17.414371 9.451263,17.257491 9.447353,17.100638 9.474324,16.941973 9.511388,16.90491 9.559442,16.85686 9.5117628,16.678022 9.3451771,16.28125 9.2166973,15.975291 9.0767458,15.583938 9.034178,15.41157 L 8.956786,15.098172 8.953336,15.41157 c -0.00322,0.286087 -0.053089,0.504399 -0.3504454,1.533639 -0.054469,0.188491 -0.099005,0.435998 -0.099005,0.549998 0,0.168349 -0.032373,0.219645 -0.1723728,0.273203 -0.1237212,0.04732 -0.2048149,0.04582 -0.2872765,-0.0053 -0.088842,-0.05511 -0.1468974,-0.05033 -0.2559243,0.02115 -0.1945833,0.127492 -0.7887396,0.168212 -0.7887396,0.05406 0,-0.02704 0.080588,-0.09677 0.1791096,-0.154968 0.1474262,-0.08709 0.213253,-0.214195 0.3721431,-0.718659 0.1061782,-0.337073 0.2112297,-0.697478 0.2334356,-0.8009 0.022302,-0.103419 0.1557954,-0.547988 0.2968482,-0.987928 l 0.2564554,-0.799889 0.1615205,0.140529 c 0.088842,0.07728 0.2574165,0.225692 0.3746333,0.329794 0.1172144,0.104109 0.1889732,0.147288 0.1594511,0.09599 -0.02952,-0.05128 -0.1395152,-0.163601 -0.2444609,-0.249597 -0.1049366,-0.08599 -0.3707936,-0.326078 -0.5907971,-0.53353 l -0.4000075,-0.377188 0.031178,0.616847 c 0.017244,0.339267 0.00989,0.582454 -0.016095,0.540417 -0.05417,-0.08765 -0.1870878,-0.02725 -0.1856623,0.08436 6.875e-4,0.05341 0.015405,0.05187 0.051779,-0.0055 0.031293,-0.04932 0.048997,0.0028 0.046054,0.135608 -0.00253,0.11864 -0.031936,0.211092 -0.065137,0.205459 -0.06785,-0.0115 -0.2193,-0.392326 -0.2207485,-0.555 -5.219e-4,-0.05829 -0.025774,-0.12133 -0.056147,-0.140092 -0.030442,-0.01885 -0.060171,0.309836 -0.06631,0.732783 -0.00621,0.421795 -0.016554,0.916958 -0.023153,1.100365 -0.011496,0.320004 -0.015175,0.326329 -0.087577,0.156692 -0.073966,-0.173131 -0.075576,-0.173614 -0.078358,-0.02375 -0.00276,0.14807 -0.00575,0.149082 -0.094843,0.03134 -0.050606,-0.06691 -0.096268,-0.178075 -0.1014418,-0.247029 -0.00644,-0.08627 -0.024326,-0.0667 -0.057251,0.06268 -0.045364,0.178236 -0.04856,0.179868 -0.061504,0.03134 l -0.013565,-0.156692 -0.050192,0.156692 c -0.041846,0.130642 -0.051388,0.135838 -0.057389,0.03134 -0.00598,-0.104431 -0.017244,-0.109673 -0.067965,-0.03134 -0.047042,0.07277 -0.062378,0.05153 -0.067965,-0.09401 -0.00713,-0.184743 -0.00805,-0.185271 -0.057389,-0.03134 l -0.050192,0.156692 -0.00621,-0.153565 c -0.00851,-0.211276 -0.094636,-0.100982 -0.2178744,0.279259 -0.1237902,0.381972 -0.1467595,0.998176 -0.041938,1.124483 0.1160189,0.139816 0.022302,0.222795 -0.2515834,0.222795 -0.1358611,0 -0.2470194,0.02821 -0.2470194,0.06268 0,0.03446 -0.024625,0.06268 -0.054698,0.06268 -0.030097,0 -0.069621,-0.14807 -0.087853,-0.329067 z M 8.8774238,10.161028 C 8.7693603,10.014866 8.7489202,9.9251503 8.7797758,9.7322891 8.8237369,9.4573548 8.811758,9.4480636 8.5956999,9.5896222 8.3862406,9.7268629 8.3996451,9.7923908 8.6919224,10.059567 c 0.213345,0.195021 0.252287,0.269959 0.2612539,0.502808 l 0.010576,0.273629 0.025177,-0.245065 C 9.007553,10.40953 8.9785828,10.297864 8.8774629,10.16103 Z M 4.284377,9.8862773 c -0.021843,-0.021843 -0.083002,-0.00368 -0.1359761,0.040259 -0.077047,0.063941 -0.080956,0.09843 -0.019543,0.1724187 0.066264,0.07983 0.084864,0.07433 0.1359761,-0.04026 0.03258,-0.073 0.041386,-0.1505761 0.019543,-0.1723957 z m 9.859709,-2.952077 c -0.0012,-0.06001 -0.122158,-0.249245 -0.123446,-0.1931578 -5.01e-4,0.023038 -0.01816,0.086497 -0.03899,0.1410344 -0.02497,0.065068 -0.0034,0.099143 0.06268,0.099143 0.05539,0 0.100293,-0.021153 0.09976,-0.047019 z"
             id="path7266" />
          <path
             style="fill:#000000;stroke:#000000;stroke-width:0.0108314;stroke-linecap:butt;stroke-linejoin:miter;stroke-miterlimit:4;stroke-dasharray:none;stroke-opacity:1"
             d="M 6.8510359,14.9948 7.001872,15.471409 6.8785543,14.747563 7.2396886,15.777234 6.8857249,14.405634 7.3236817,15.85527 7.0345594,14.622726 7.5636805,15.808468 7.2204936,14.56207 7.6145382,15.407101 7.3856741,14.35482 7.9231695,15.354342 7.5454682,14.084968 Z"
             id="use116499" />
          <path
             style="fill:#000000;stroke:#000000;stroke-width:0.0108314;stroke-linecap:butt;stroke-linejoin:miter;stroke-miterlimit:4;stroke-dasharray:none;stroke-opacity:1"
             d="M 7.552281,14.858773 7.617001,15.354474 7.422854,14.64633 7.530713,15.732151 7.27185,14.339468 7.487569,15.838373 7.228707,14.59912 7.250277,15.897384 7.034559,14.622726 v 0.932389 L 6.797267,14.504702 6.732547,15.637732 6.5384,14.327665 Z"
             id="use116501" />
          <path
             style="fill:#000000;stroke:#000000;stroke-width:0.0108314;stroke-linecap:butt;stroke-linejoin:miter;stroke-miterlimit:4;stroke-dasharray:none;stroke-opacity:1"
             d="m 7.282303,15.990714 0.06472,0.495701 -0.194147,-0.708144 0.107859,1.085821 -0.258863,-1.392683 0.215719,1.498905 -0.258862,-1.239253 0.02157,1.298264 -0.215718,-1.274658 v 0.932389 l -0.237292,-1.050413 -0.06472,1.13303 -0.194147,-1.310067 z"
             id="use116507" />
          <path
             style="fill:#000000;stroke:#000000;stroke-width:0.0108314;stroke-linecap:butt;stroke-linejoin:miter;stroke-miterlimit:4;stroke-dasharray:none;stroke-opacity:1"
             d="M 6.246858,15.82548 6.182138,16.321181 6.376285,15.613037 6.268426,16.698858 6.527289,15.306175 6.31157,16.80508 6.570432,15.565827 6.548862,16.864091 6.76458,15.589433 v 0.932389 l 0.237292,-1.050413 0.06472,1.13303 0.194147,-1.310067 z"
             id="use116511" />
          <path
             style="fill:#000000;stroke:#000000;stroke-width:0.0108314;stroke-linecap:butt;stroke-linejoin:miter;stroke-miterlimit:4;stroke-dasharray:none;stroke-opacity:1"
             d="M 7.789572,14.575515 7.854292,15.071216 7.660145,14.363072 7.768004,15.448893 7.509141,14.05621 7.72486,15.555115 7.465998,14.315862 7.487568,15.614126 7.27185,14.339468 v 0.932389 l -0.237292,-1.050413 -0.06472,1.13303 -0.194147,-1.310067 z"
             id="use116545" />
          <path
             style="fill:#000000;stroke:#000000;stroke-width:0.0108314;stroke-linecap:butt;stroke-linejoin:miter;stroke-miterlimit:4;stroke-dasharray:none;stroke-opacity:1"
             d="m 6.7645798,15.589433 0.1918014,0.46165 -0.1859358,-0.710344 0.4495019,0.994278 -0.4721596,-1.335531 0.5626344,1.40595 L 6.9149766,15.20278 7.5454285,16.337895 7.0949167,15.12615 7.5611112,15.933622 7.2414056,14.905292 7.8639698,15.854165 7.3770725,14.62254 Z"
             id="use116547" />
          <path
             style="fill:#000000;stroke:#000000;stroke-width:0.00848189;stroke-linecap:butt;stroke-linejoin:miter;stroke-miterlimit:4;stroke-dasharray:none;stroke-opacity:1"
             d="m 6.9938873,14.910162 0.21348,0.449134 L 6.9563997,14.686498 7.4420303,15.659917 6.8831614,14.374448 7.5180535,15.73868 7.0358991,14.586085 7.673576,15.717029 7.150807,14.547001 7.6170015,15.354474 7.2178121,14.372033 7.8186975,15.333422 7.2667683,14.139344 Z"
             id="use116549" />
          <path
             style="fill:#000000;stroke:#000000;stroke-width:0.00805563;stroke-linecap:butt;stroke-linejoin:miter;stroke-miterlimit:4;stroke-dasharray:none;stroke-opacity:1"
             d="M 7.2414057,14.905292 7.2056069,15.400993 7.3129961,14.692849 7.2533356,15.77867 7.3965215,14.385987 7.2772,15.884892 7.4203853,14.645639 7.4084542,15.943903 7.5277751,14.669245 v 0.932389 l 0.1312542,-1.050413 0.035799,1.13303 0.1073892,-1.310067 z"
             id="use116551" />
          <path
             style="fill:#000000;stroke:#000000;stroke-width:0.00729359;stroke-linecap:butt;stroke-linejoin:miter;stroke-miterlimit:4;stroke-dasharray:none;stroke-opacity:1"
             d="M 7.2781563,15.828556 7.3830385,16.271733 7.2709776,15.580297 7.5133142,16.531615 7.2472569,15.242318 7.5569653,16.593881 7.3308115,15.430267 7.6604503,16.506114 7.4090634,15.338245 7.6515578,16.102013 7.4665054,15.10546 7.7852212,15.996462 7.516613,14.81196 Z"
             id="use116553" />
          <path
             style="fill:#000000;stroke:#000000;stroke-width:0.00994097;stroke-linecap:butt;stroke-linejoin:miter;stroke-miterlimit:4;stroke-dasharray:none;stroke-opacity:1"
             d="m 6.7596401,16.003361 0.1615623,0.46165 -0.1566214,-0.710344 0.3786341,0.994278 -0.3977197,-1.33553 0.4739304,1.405949 -0.3331002,-1.202656 0.531056,1.135115 -0.3794849,-1.211745 0.3926951,0.807472 -0.2693014,-1.02833 0.5244118,0.948873 -0.4101339,-1.231625 z"
             id="use116557" />
          <path
             style="fill:#000000;stroke:#000000;stroke-width:0.00725414;stroke-linecap:butt;stroke-linejoin:miter;stroke-miterlimit:4;stroke-dasharray:none;stroke-opacity:1"
             d="M 6.76458,16.521822 6.841148,16.939066 6.783414,16.329165 6.968357,17.238512 6.7923619,16.055773 7.0137217,17.320162 6.8716001,16.263843 7.1472729,17.336491 6.9754214,16.256871 7.1812726,17.025118 7.0698872,16.127331 7.3529074,17.052089 7.1622823,15.94623 Z"
             id="use116565" />
          <path
             style="fill:#000000;stroke:#000000;stroke-width:0.00848189;stroke-linecap:butt;stroke-linejoin:miter;stroke-miterlimit:4;stroke-dasharray:none;stroke-opacity:1"
             d="m 7.1955833,14.889111 0.21348,0.449133 -0.2509676,-0.672798 0.4856306,0.97342 -0.5588689,-1.285469 0.6348921,1.364231 -0.4821544,-1.152594 0.6376769,1.130943 -0.522769,-1.170027 0.4661945,0.807472 -0.3991894,-0.98244 0.6008854,0.961389 -0.5519292,-1.194079 z"
             id="use116549-4" />
          <path
             style="fill:#000000;stroke:#000000;stroke-width:0.00848189;stroke-linecap:butt;stroke-linejoin:miter;stroke-miterlimit:4;stroke-dasharray:none;stroke-opacity:1"
             d="M 7.54131,14.645313 7.8235309,15.054759 7.3663546,14.501015 7.966545,15.408293 7.1327309,14.281564 7.9967438,15.513512 7.2396452,14.519657 7.9002322,15.637373 7.1483433,14.599628 7.6145378,15.407101 6.9633142,14.570173 7.4954588,15.571249 6.7373209,14.496225 Z"
             id="use116549-2" />
          <path
             style="fill:#000000;fill-opacity:1;stroke:#000000;stroke-width:0.01;stroke-linecap:butt;stroke-linejoin:miter;stroke-miterlimit:4;stroke-dasharray:none;stroke-opacity:1"
             d="m 7.8203013,14.425572 c 0,0 -0.00391,0.191406 0.1289062,0.464844 C 8.0820201,15.163853 7.660145,14.363072 7.660145,14.363072 Z"
             id="path116803" />
          <path
             style="display:inline;fill:#000000;fill-opacity:1;stroke:#000000;stroke-width:0.01;stroke-linecap:butt;stroke-linejoin:miter;stroke-miterlimit:4;stroke-dasharray:none;stroke-opacity:1"
             d="m 7.789572,14.575515 c 0,0 -0.00391,0.191406 0.1289062,0.464844 0.1328126,0.273437 -0.2890625,-0.527344 -0.2890625,-0.527344 z"
             id="path116803-9" />
          <path
             style="display:inline;fill:#000000;fill-opacity:1;stroke:#000000;stroke-width:0.01;stroke-linecap:butt;stroke-linejoin:miter;stroke-miterlimit:4;stroke-dasharray:none;stroke-opacity:1"
             d="m 7.789572,14.575515 c 0,0 0.02938,0.189178 0.207668,0.435397 0.178277,0.246222 -0.3762435,-0.469137 -0.3762435,-0.469137 z"
             id="path116803-7" />
          <path
             style="display:inline;fill:#000000;fill-opacity:1;stroke:#000000;stroke-width:0.01;stroke-linecap:butt;stroke-linejoin:miter;stroke-miterlimit:4;stroke-dasharray:none;stroke-opacity:1"
             d="m 7.0813587,16.527511 c 0,0 -0.00391,0.191406 0.1289062,0.464844 0.1328126,0.273437 -0.2890625,-0.527344 -0.2890625,-0.527344 z"
             id="path116803-94" />
          <path
             style="display:inline;fill:#000000;fill-opacity:1;stroke:#000000;stroke-width:0.01;stroke-linecap:butt;stroke-linejoin:miter;stroke-miterlimit:4;stroke-dasharray:none;stroke-opacity:1"
             d="m 6.783414,16.329165 c 0,0 -0.00391,0.191406 0.1289062,0.464844 0.1328126,0.273437 -0.2890625,-0.527344 -0.2890625,-0.527344 z"
             id="path116803-6" />
          <path
             style="display:inline;fill:#000000;fill-opacity:1;stroke:#000000;stroke-width:0.00892617;stroke-linecap:butt;stroke-linejoin:miter;stroke-miterlimit:4;stroke-dasharray:none;stroke-opacity:1"
             d="m 7.812161,14.234346 c 0,0 -0.00351,0.169376 0.116067,0.411344 0.1195825,0.241968 -0.2602702,-0.466652 -0.2602702,-0.466652 z"
             id="path116803-4" />
        </g>
      </g>
    </g>
  </g>
</svg>
